<?xml version="1.0" standalone="no"?>
<!DOCTYPE svg PUBLIC "-//W3C//DTD SVG 20010904//EN"
 "http://www.w3.org/TR/2001/REC-SVG-20010904/DTD/svg10.dtd">
<svg version="1.0" xmlns="http://www.w3.org/2000/svg"
 width="256.000000pt" height="256.000000pt" viewBox="0 0 256.000000 256.000000"
 preserveAspectRatio="xMidYMid meet">

<g transform="translate(0.000000,256.000000) scale(0.100000,-0.100000)"
fill="#000000" stroke="none">
<path d="M1527 2030 c-118 -30 -203 -120 -239 -254 -15 -56 0 -141 32 -190 13
-19 19 -23 16 -11 -13 48 -8 145 10 196 25 70 99 150 172 186 50 24 68 28 152
28 52 0 107 -3 122 -8 37 -10 28 13 -15 38 -37 22 -186 31 -250 15z"/>
<path d="M460 1452 c0 -4 5 -13 11 -19 7 -7 13 -44 13 -84 2 -56 6 -74 20 -84
12 -9 16 -20 11 -34 -9 -28 -21 -26 -56 8 -25 26 -29 36 -25 73 2 24 5 48 6
53 6 27 -1 35 -25 29 -21 -5 -25 -3 -25 15 0 28 -14 26 -39 -5 -27 -34 -27
-88 -1 -114 20 -20 26 -40 12 -40 -4 0 -25 18 -46 39 -30 31 -37 44 -31 61 6
19 4 22 -9 17 -23 -9 -33 21 -13 40 12 13 19 14 30 5 18 -15 30 -3 16 15 -17
20 -57 16 -69 -8 -8 -14 -8 -29 -1 -50 8 -23 7 -29 -4 -29 -8 0 -19 9 -25 20
-6 11 -16 17 -26 13 -8 -3 -24 3 -34 12 -23 21 -34 14 -35 -18 0 -17 -7 -23
-28 -25 -51 -6 -22 -26 54 -38 84 -14 130 -29 215 -72 112 -57 144 -62 354
-55 l190 6 0 -76 c0 -68 13 -126 29 -127 3 0 15 -7 26 -16 19 -14 19 -16 -19
-48 -24 -19 -36 -37 -32 -44 10 -17 18 -15 46 11 35 32 96 77 103 77 4 0 7
-22 7 -50 0 -37 4 -50 15 -50 12 0 15 28 17 168 l3 167 128 3 127 3 0 -40 c0
-40 -13 -61 -25 -41 -3 5 -24 10 -46 10 -32 0 -47 -7 -71 -30 -28 -28 -30 -36
-25 -78 8 -69 43 -96 114 -89 l53 6 0 -40 c0 -28 4 -39 15 -39 12 0 15 27 17
158 l3 157 26 3 27 3 5 -313 c5 -276 8 -321 26 -381 21 -71 67 -173 82 -183 9
-5 1 23 -11 41 -13 19 -32 100 -46 190 -20 133 -19 573 1 602 14 20 13 24 -14
56 l-30 34 -276 -5 c-199 -3 -279 -2 -288 7 -7 7 -60 11 -153 11 -140 0 -171
7 -146 32 8 8 15 8 25 0 16 -14 28 -6 20 14 -3 8 -15 14 -27 14 -12 0 -27 9
-34 21 -11 18 -11 24 4 40 9 10 14 25 11 34 -7 17 -27 21 -27 5 0 -5 -7 -10
-15 -10 -8 0 -15 5 -15 10 0 6 -11 22 -25 35 -24 25 -45 32 -45 17z m600 -346
c0 -102 -4 -111 -59 -122 -23 -5 -37 -2 -51 11 -17 16 -20 31 -20 112 l0 93
65 0 65 0 0 -94z m269 -22 c35 -45 21 -107 -29 -134 -39 -21 -90 26 -90 84 0
13 9 35 21 50 28 35 70 35 98 0z"/>
<path d="M1460 1429 c61 -54 193 -95 385 -119 148 -19 235 -40 309 -76 38 -19
71 -32 73 -30 7 7 -79 62 -139 89 -68 31 -151 53 -233 61 -124 12 -308 48
-353 69 -67 30 -70 31 -42 6z"/>
<path d="M622 1378 c-16 -16 -15 -33 3 -48 13 -11 15 -7 15 24 0 40 -1 41 -18
24z"/>
<path d="M41 1247 c-13 -17 -4 -28 17 -20 10 4 13 2 8 -5 -4 -7 -3 -12 3 -12
17 0 23 20 11 35 -15 19 -24 19 -39 2z"/>
<path d="M1608 1223 c-121 -5 -112 -23 11 -23 59 0 102 -4 106 -11 4 -5 4 -21
1 -35 -6 -23 -10 -24 -76 -24 -66 0 -71 -2 -82 -26 -9 -18 -9 -33 -1 -54 7
-20 8 -40 0 -68 -8 -32 -7 -45 9 -78 23 -47 111 -111 128 -93 8 8 6 14 -8 23
-11 6 -37 27 -59 46 -32 29 -39 43 -40 74 -1 29 5 43 22 57 30 24 83 25 104 1
22 -24 21 -44 -3 -72 -11 -12 -17 -27 -14 -31 17 -28 64 22 64 68 0 48 -45 75
-120 71 l-55 -3 0 30 0 30 80 5 80 5 3 33 3 32 135 0 c74 0 134 3 134 6 0 3
-10 14 -22 25 -20 16 -39 18 -168 17 -80 -1 -184 -4 -232 -5z"/>
<path d="M2245 1180 c3 -5 11 -10 16 -10 6 0 7 5 4 10 -3 6 -11 10 -16 10 -6
0 -7 -4 -4 -10z"/>
<path d="M2461 924 c-1 -6 6 -33 14 -60 66 -223 7 -477 -145 -633 -110 -113
-286 -172 -447 -151 -45 6 -99 17 -120 26 l-38 15 30 -25 c57 -49 139 -71 255
-71 58 1 122 6 143 12 174 51 321 210 372 403 19 72 20 262 0 335 -15 57 -63
169 -64 149z"/>
</g>
</svg>
